<?xml version="1.0" encoding="utf-8"?>
<!-- Generator: Adobe Illustrator 19.1.0, SVG Export Plug-In . SVG Version: 6.00 Build 0)  -->
<svg version="1.1" baseProfile="tiny" id="icons" xmlns="http://www.w3.org/2000/svg" xmlns:xlink="http://www.w3.org/1999/xlink"
	 x="0px" y="0px" width="24px" height="24px" viewBox="0 0 24 24" xml:space="preserve">
<path fill="#697379" d="M18,10c0-0.3-0.1-0.5-0.3-0.7C17.5,9.1,17.3,9,17,9s-0.5,0.1-0.7,0.3L12,13.6L7.7,9.3C7.5,9.1,7.3,9,7,9
	S6.5,9.1,6.3,9.3c-0.4,0.4-0.4,1,0,1.4l5,5c0.2,0.2,0.5,0.3,0.7,0.3s0.5-0.1,0.7-0.3l5-5C17.9,10.5,18,10.3,18,10z"/>
</svg>
